<svg id="Layer_1" data-name="Layer 1" xmlns="http://www.w3.org/2000/svg" viewBox="0 0 167.07 159.3"><title>safari-pinned-tab</title><path d="M90.19,116.66c4.62-5.28,8.56-9.73,12.44-14.25,2-2.33,3.74-2,6.48-.75a167.64,167.64,0,0,0,19.89,8c5.71,1.87,8.39.16,11.28-6.12,3-6.57,6-13.18,8.78-19.87,4.8-11.57-1.66-30.44-12.48-35.39-9.6-4.4-19.22-3.35-27.42,3.3-4.73,3.83-8.57,8.84-12.45,13.61-1.89,2.31-3.62,2.63-5.79,1.08-8.75-6.22-18.74-7.68-28.86-6.15-8.5,1.28-14.4,7.26-17.13,15.3-4.2,12.33,1.41,27.09,12.22,34.83,7.82,5.6,15,12.13,23.25,17,10,6,20.61,11,31.19,15.86,8.84,4.09,18,7.43,28.14,11.55-3.7,4.17-7.16,8.07-10.63,12-.65.74-1.37,1.41-2,2.12-8.16,8.6-8.17,8.47-19.44,3.12-8.9-4.22-18.11-7.8-27-12.08C65.42,152.5,51,143.78,38.31,132.59c-9.12-8-16.84-17.52-21.08-28.77C12,90,9.92,75.3,17,61.41c7.21-14.15,17.46-25.34,34.49-27.6,5.36-.71,10.76-2.12,16.06-1.85,5.48.29,10.84,2.38,16.3,3.37a5.87,5.87,0,0,0,4.48-1.08c7.2-6.71,14.81-12.34,24.49-15.38a51.12,51.12,0,0,1,35.26,1.31c12.4,4.88,21.77,13.62,26.7,25.77A64.4,64.4,0,0,1,178.65,81c-2.88,17.53-10.74,32.66-20.33,47.17-2.6,3.94-5.21,7.87-7.59,11.94-1.66,2.85-4.13,3.46-6.7,2.34-13.45-5.84-26.86-11.76-40.16-17.93C99.25,122.37,95,119.45,90.19,116.66Z" transform="translate(-12.46 -16.35)"/></svg>